<?xml version="1.0" encoding="utf-8"?>
<!-- Generator: Adobe Illustrator 19.2.1, SVG Export Plug-In . SVG Version: 6.00 Build 0)  -->
<svg version="1.1"
	 id="svg2" inkscape:output_extension="org.inkscape.output.svg.inkscape" inkscape:version="0.45.1" sodipodi:docbase="C:\Documents and Settings\Timothy Brauning\My Documents" sodipodi:docname="LUwithShield-CMYK 2.svg" sodipodi:version="0.32" xmlns:cc="http://web.resource.org/cc/" xmlns:dc="http://purl.org/dc/elements/1.1/" xmlns:inkscape="http://www.inkscape.org/namespaces/inkscape" xmlns:rdf="http://www.w3.org/1999/02/22-rdf-syntax-ns#" xmlns:sodipodi="http://sodipodi.sourceforge.net/DTD/sodipodi-0.dtd" xmlns:svg="http://www.w3.org/2000/svg"
	 xmlns="http://www.w3.org/2000/svg" xmlns:xlink="http://www.w3.org/1999/xlink" x="0px" y="0px" viewBox="0 0 1000 1000"
	 style="enable-background:new 0 0 1000 1000;" xml:space="preserve">
<style type="text/css">
	.st0{fill:#4C280F;}
	.st1{fill:#FFFFFF;}
	.st2{fill:#CE1126;}
	.st3{fill:#FFCF49;}
</style>
<sodipodi:namedview  bordercolor="#666666" borderopacity="1.0" gridtolerance="10.0" guidetolerance="10.0" id="base" inkscape:current-layer="svg2" inkscape:cx="160.97894" inkscape:cy="167.57863" inkscape:grid-bbox="false" inkscape:guide-bbox="true" inkscape:object-paths="false" inkscape:pageopacity="0.0" inkscape:pageshadow="2" inkscape:window-height="712" inkscape:window-width="1020" inkscape:window-x="-4" inkscape:window-y="-4" inkscape:zoom="1.5157166" objecttolerance="10.0" pagecolor="#ffffff" showgrid="false" showguides="true">
	</sodipodi:namedview>
<g>
	<path id="path3211" sodipodi:nodetypes="ccsscccsscc" class="st0" d="M363.9,840.4c-87.4-85.2-146.6-166.7-174.4-246.7
		c0,0-8.5-25.3-9.6-33.3c-2.5-18.6-0.9-130.3-1.3-260.3S178,40.4,178,40.4h647.1L824,297.2c-1.1,255.9-1.2,256.9-8.8,282
		C786.8,672.6,705.4,785,599.6,876.7c-31.4,27.2-36.2,31.4-98.8,77.2C417.5,896.2,405.6,882,363.9,840.4z"/>
	<path id="path3199" sodipodi:nodetypes="cccssccssccscccccss" class="st1" d="M571.3,775.1c33.6-19.6,60.8-30.6,114-30.6l0-269.7
		c-66.2-4.9-86.5-4.1-123.7,5.8c-17.7,4.7-52.2,16.7-54.7,45.3c-0.5,6.2-0.7,10.5-0.7,16.7l-11.1,0.1c0-6.3,0-9.6-0.9-17.1
		c-2.9-25.4-23-36.2-42.7-42.1c-44.2-13.3-90.5-11.2-135-8.4l-0.2,268.7c9.4,0,19.8,0.3,21.7,0.5c45.2,4.6,87.3,23.2,129.9,57.2
		l27.2,23.5l0-97.4l11.2,0l0.3,97.8c0,0,4.4-4.8,19.8-18.2C540.9,794.3,558.4,782.6,571.3,775.1z"/>
	<path id="path2184" sodipodi:nodetypes="cssccccsscccsscccsssscc" class="st0" d="M475.8,984.6c-48.7-32.6-98.2-70-150.1-125.5
		c-80.5-85.9-135.7-156-162.9-228.9c-31.6-84.8-24.5-31.8-25-341.5c-0.2-157.7,0-288.8,0-288.8h727.4l0.1,283.5
		c0.1,286.8-8.8,296.2-9.6,299.5c-20.2,86.4-94,213.7-267.5,355.6c-28.4,23.2-76.9,55.7-87.3,61.9
		C492.7,995.7,488.6,993.2,475.8,984.6z M560,935.7c75.2-58.6,109.2-93,157.8-151c47.6-56.8,86.7-119.8,105.5-171.3
		c20.8-57,20.1-31.9,20-330.4l0-262.8l-685.5,0c0,0,0.8,134.6,0.2,268.8c-0.6,134.3,0.1,240.2,0.2,243.3
		c0.5,47.1,26.2,103.9,36.5,122.7c39.9,72.8,92.9,148.6,215.1,255.1c31.5,27.4,85.8,63.7,91.1,67C506.8,973.7,555,939.5,560,935.7z"
		/>
	<path id="path2174" sodipodi:nodetypes="cscccsscccc" class="st2" d="M422.6,624.7c-5.3-10.2-7.5-21.1-6.1-31.6
		c5.2-38.1,46.6-51.3,78.3-20.3l5.9,5.8l5.9-5.8c31.3-31.1,73.8-18,78.1,20.2c1.2,10.8-2,23.3-6.2,32.5c-7.7,17-33.2,38.9-61.7,63.8
		l-16,14l-15.5-13.9C454.6,661.7,432.6,643.8,422.6,624.7z"/>
	<path id="path3209" sodipodi:nodetypes="csccscsccscc" class="st3" d="M539.3,908.3c17-13,47.1-40.1,71.4-62.4
		c28.8-26.4,42.4-40.9,42.4-40.9l-89.4,0.1c-10.2,7.7-16,12.2-42.6,36.7c-6.6,6-20.4,20.7-20.4,20.7s-12.7-14.4-21.1-22.3
		c-22.6-21.2-28.5-25.3-42.7-35.4l-88.9,0.3c0,0,27.4,28.4,43,42.8c52.1,48.3,68.5,59.7,109.5,89.5
		C509.1,931,522.3,921.4,539.3,908.3z"/>
	<path id="path3207" sodipodi:nodetypes="cccc" class="st1" d="M689.2,763.9c-48,0.1-68.9,5.2-98.7,24.2l76.2-0.1L689.2,763.9z"/>
	<path id="path3205" sodipodi:nodetypes="ccccc" class="st1" d="M725.7,717.1l0-203.6l-18.7,0l0.4,228.2L725.7,717.1z"/>
	<path id="path3203" sodipodi:nodetypes="cccccccc" class="st3" d="M773.8,641.5c27.3-54.7,34.2-79.3,34.2-126.5v-40.2h-101v20.4
		l33.7-0.2l0,202.9C742.6,694.6,761.6,665.9,773.8,641.5z"/>
	
		<path id="path3201" sodipodi:nodetypes="cccssscsssscccccccssscsssccsccssscsccccccsscssccscsscssscccscccssscccsscssccccscccsccs" class="st3" d="
		M323.5,453.3c9.3-0.6,19.2-0.5,32.6-0.9c0,0,0.7-5.2,1.7-9.4c-13.6,0.7-23.7,1.2-37.3,0.5c-42.4-2.2-56.9-6.3-74.6-21.4
		c-13.7-11.7-22.9-26.4-26.5-44.5c-1.7-8.4,0.8-16.1,0.8-16.1s2.3,9.1,10.2,15.2c6.8,5.3,16.3,10.3,21,12.4c4.4,2,8.3,2.8,13.5,3.4
		c2.5,0.2,15.6-0.2,29.3-2.1c30.4-4.2,46.6-0.7,61.1,13.5l10.3,10.1c2.7-7.1,6.1-14.8,9.4-22.5l-85.4-118.3l52.1,37.1l63.5,45.3
		c3.3-3.1,11.9-10,16.7-12.8c0,0-2.6-2.4-16.8-20.3c-23.6-29.8-31.8-50.9-31.8-74.2c0-22.8,6.8-37.7,17.2-51.3
		c2.6-3.5,6-7.1,11.2-8.6c0,0-2.1,6.9-3,12.6c-3.2,19.6,3.7,37.6,26.6,61.5c25.2,26.4,28.8,34.6,28.8,50.5c0,11-0.7,6.6,0.6,14.2
		c7.4-2.4,14.9-3.8,21.3-4.7c0.2-5.5,23.7-150.8,24.7-146.9c11.9,47.6,15.6,98.9,25.5,146.9c0,0,15.3,2.7,22.2,5.1
		c0,0-0.3-5.1,0-16.9c0.8-31.7,11-56.9,23.6-74.4c14.1-19.5,28.8-30.4,48.8-31.3c14.5-0.6,16.8,4,16.8,4s-5,3.3-10.6,8.3
		c-20.1,18.2-21.4,30.5-21.4,62.7c3.1,44-14.9,50.9-25.6,61.3c6.4,5.1,11.3,9.2,17,15.5l114.6-83.9c0.8,0-82,114.7-85.9,120.4
		c4.3,5.6,7.9,11.7,10.8,16.8c13.6-12.2,27.9-24.7,44.3-33.4c17-9,47.8-11.6,64.4-6.2c23.5,7.6,32.4,20.5,36.2,28.9
		c-5.6-0.7-11.5-2.6-18.8-2.2c-21.3,0.9-29.8,3.4-56,25.9c-20.7,17.8-37.9,24.3-56.7,24.6c0.1,2.4,0.3,4,0.4,5.2
		c8.8,0.3,18.6,0.7,31.2,1.8c8.1,0.7,15.7,1.1,20.8,1.6c8-7,13.4-11.9,21.6-17.8c26.4-19.1,42.3-22.7,63.6-9
		c5.3,3.4,7.6,4.8,11.4,7.5c3.1-5.4,5.8-8.6,8.7-19.1c4.9-17.2-2-35.9-20.1-54.5c-20-20.7-45.9-29-74-23.9
		c-10.3,1.9-19.1,3-19.6,2.6l91.5-145.7l-154.8,93.4c-3.9,0,1.8-37,7.3-47.7c5.5-10.6,22.7-16.5,36.5-19.6l6.6-1.5l-1.7-8.5
		c-2.5-12.3-18-27.3-35-31.6c-9.8-2.5-18.2-2.3-30.2-1.6c-25.3,1.6-44.1,12.2-60.6,35.5c-2.8,3.9-8.5,9.7-12,14.2l-41-162.3
		l-46.5,186.1c-2.7,0-21.1-22.7-26.4-32.6c-2.2-4-3.9-10.7-3.9-14.7c0-9,12.6-30.2,18.5-35.3c-3.7-4.4-8.1-6.8-19.4-8.6
		c-24.9-4-56.4,13.7-69.7,44.6c-6.2,14.4-6.9,25.1-5.9,39.7c0.8,12.1,2.6,29,4,32.4L217,195.9l101.6,163.2c-0.6,0.6-14.2,1.5-30.1,2
		c-35.1,1.1-44.6-4.1-52.9-28.9l-5.3-16l-11.7,7.8c-21.4,14.3-28.7,42.3-19.8,75c8,29.4,38.4,54.6,95.4,60.6l0-4.2
		C301.7,454.6,312.2,454.1,323.5,453.3z"/>
	<path id="path3197" class="st3" d="M294.2,495v-20.2l-102.6-0.1l0.1,39.4c0.1,55.5,17.2,95.5,51.5,155.6l14.2,24.8l1.8-199.5
		L294.2,495z"/>
	<path id="path3195" class="st1" d="M294.6,513.6l-19,0.1l0.1,206.9l18.8,23.8L294.6,513.6z"/>
	<path id="path3193" sodipodi:nodetypes="cccc" class="st1" d="M408.1,787.9c-34.2-17.7-44.3-24-96.3-24.1l22.4,24.1L408.1,787.9z"
		/>
	<path id="path2180" sodipodi:nodetypes="cscsscsscc" class="st3" d="M520.2,474.3c21-11.1,39.5-16.1,66.8-19.9c9-1.2,20.1-2,29.1-2
		c0.1-23.4-21.5-56.6-39.3-72.8c-42.8-39.1-105.1-38.6-151.5-0.5c-14,11.5-38.4,49-38.4,73.3c12.8,0.3,25.1,0.9,35.2,2.8
		c25.1,4.8,38.8,8.6,55.3,17.3c12.3,6.5,18.9,11.2,23.4,14.7C505.4,483.6,510.8,479.2,520.2,474.3z"/>
</g>
</svg>
